<?xml version="1.0" encoding="UTF-8"?>
<!-- Generator: Adobe Illustrator 24.0.1, SVG Export Plug-In . SVG Version: 6.00 Build 0)  -->
<svg version="1.1" id="Layer_1" xmlns="http://www.w3.org/2000/svg" xmlns:xlink="http://www.w3.org/1999/xlink" x="0px" y="0px" viewBox="0 0 402.8 154.1" style="enable-background:new 0 0 402.8 154.1;" xml:space="preserve">
<style type="text/css">
	.st0{display:none;}
	.st1{display:inline;}
	.st2{display:inline;fill:#FFFFFF;}
	.st3{fill:#FFFFFF;}
</style>
<g class="st0">
	<path class="st1" d="M-254.9,18.5c-6.6,0.1-13.2,0.1-19.8,0c-1.6,0-2.4,0.5-2.9,2c-13.1,36.1-26.1,72.1-39.2,108.2   c-0.2,0.7-0.6,1.4-0.9,2c0-16.2,0.3-32.1,0.5-48.1c0-1.7,0.5-2.8,1.9-4c1.8-1.5,3.5-3.4,4.8-5.4c6.7-10.4,9.6-21.9,9.3-34.2   c-0.3-10.6-6-17.8-16.3-19.4c-8.4-1.2-17.1-0.8-25.6-1c-0.6,0-1.5,1.2-1.7,1.9c-3,13.7-5.9,27.5-8.9,41.2   c-4.2,19.9-8.4,39.7-12.6,59.6c-1,4.5-1.9,9-2.9,13.8h21.3c3.1-14.6,6.2-29.2,9.2-43.7c0.2,0.1,0.4,0.1,0.6,0.2   c-0.4,14.5-0.8,28.9-1.3,43.4c0.6,0.1,1,0.2,1.3,0.2c12.7,0,25.5,0,38.2,0c1.7,0,2.1-0.9,2.5-2.1c2.1-6.2,4.2-12.5,6.3-18.7   c0.3-0.8,1-1.9,1.5-1.9c3.5-0.2,6.9-0.1,10.6-0.1c-0.5,7.7-1,15-1.6,22.6h20.7c0.7-10.7,1.4-21.2,2-31.8   c0.9-14.2,1.7-28.4,2.6-42.7c0.8-13.3,1.7-26.6,2.6-39.9C-252.4,19-253.1,18.5-254.9,18.5z M-329.4,65.9c-0.9,1-2.3,1.4-3.4,2.1   c-0.2-0.2-0.4-0.3-0.6-0.5c1.9-9.1,3.8-18.3,5.8-27.3c3,0,4.7,1.3,5,4C-322,52.3-323.8,59.7-329.4,65.9z M-276.9,89.2   c-0.1,0.5-0.9,1.1-1.5,1.2c-1.2,0.2-2.4,0.1-4.2,0.1c2.3-6.6,4.4-12.7,6.4-18.7c0.2,0.1,0.4,0.1,0.7,0.2   C-275.9,77.7-276.4,83.5-276.9,89.2z M-169,18.6c-6.3,0-12.7,0.1-19-0.1c-2.1,0-3.1,0.7-3.8,2.6c-5.1,12.9-10.3,25.8-15.5,38.7   c-0.3,0.8-0.7,1.5-1.1,2.3c-0.6-0.9-0.6-1.7-0.6-2.5c0.4-12.8,0.7-25.6,1.1-38.5c0.1-2-0.4-2.6-2.5-2.6c-6.7,0.1-13.3,0.1-20,0   c-1.5,0-2.2,0.3-2.6,2c-2.9,13.8-5.8,27.5-8.8,41.3c-4.2,20-8.5,40-12.7,60.1c-0.9,4.4-1.9,8.9-2.8,13.6c6.5,0,12.7,0,18.8-0.1   c0.5,0,1.4-0.9,1.6-1.5c1.6-7.1,3-14.3,4.6-21.5c1.7-8,3.4-16,5.1-24c0.2,0,0.3,0,0.5,0.1c-1,15.6-1.9,31.2-2.9,46.9   c3.3,0,6.2-0.1,9.1,0c1.7,0.1,2.3-0.6,2.8-2.1c3.7-10.5,7.5-21,11.4-31.5c1.2-3.5,2.5-6.9,3.8-10.3c0.2,0.1,0.5,0.1,0.7,0.2   c-3,14.4-6.1,28.9-9.1,43.3c0.4,0.2,0.7,0.3,0.9,0.3c5.8,0,11.7,0.1,17.5-0.1c0.7,0,1.8-1.1,2-1.9c2.9-13.2,5.8-26.5,8.6-39.8   c4.8-22.4,9.5-44.8,14.2-67.1c0.5-2.5,1-5.1,1.6-7.9C-167.3,18.7-168.1,18.6-169,18.6z M-100.4,18.5c-6.5,0.1-13,0.1-19.5,0   c-1.7,0-2.5,0.5-3,2.1c-11.1,30.7-22.3,61.4-33.5,92.2c-2.5,6.8-5,13.6-7.5,20.3c-0.1,0-0.2-0.1-0.4-0.1c1.3-6.3,2.6-12.6,3.9-19.1   h-20.9c-1.5,7.2-2.9,14.3-4.4,21.4c0.6,0.1,0.9,0.1,1.3,0.1c13.1,0,26.1-0.1,39.2-0.1c1.5,0,2-0.8,2.4-2c2.1-6.2,4.2-12.5,6.3-18.7   c0.3-0.8,1-2.1,1.6-2.1c3.5-0.2,6.9-0.1,10.6-0.1c-0.5,7.8-1.1,15.1-1.6,22.8c6.8,0,13.2,0,19.7-0.1c0.4,0,1.1-1.1,1.2-1.7   c0.5-6,0.8-12,1.2-17.9c1.1-18.3,2.2-36.6,3.3-54.9c0.8-13.2,1.7-26.4,2.6-39.6C-97.7,19.2-98.2,18.5-100.4,18.5z M-121.9,87.3   c-0.1,2.9-1.4,3.5-3.8,3.2c-0.5-0.1-1-0.1-2-0.3c2.2-6.3,4.2-12.3,6.3-18.3c0.2,0,0.3,0,0.5,0c0.1,0.4,0.2,0.8,0.2,1.2   C-121.2,77.9-121.8,82.6-121.9,87.3z M-366.5,18.7c-0.6,0-1.4,1-1.7,1.7c-1.3,3.3-2.4,6.7-3.5,10.1c-4.5,13.1-9.1,26.2-13.7,39.3   c-0.2,0-0.4-0.1-0.7-0.1c0.1-0.8,0.1-1.6,0.2-2.3c1.2-15.5,2.4-31,3.7-46.5c0.2-1.8-0.4-2.3-2.1-2.3c-5.3,0.1-10.7,0.1-16,0   c-2-0.1-2.5,0.6-2.7,2.5c-1,17.6-2.2,35.2-3.2,52.8c-1,16-1.9,31.9-2.9,47.9c-0.3,4.5-0.5,8.9-0.7,13.7c6.3,0,12.4-0.1,18.5,0   c1.8,0,2.5-0.7,3-2.2c12.9-35.5,25.8-70.9,38.8-106.4c1-2.6,1.9-5.3,2.9-8.3C-353.5,18.6-360,18.6-366.5,18.7z M-77.8,18.8   c-8.2,38.9-16.5,77.8-24.7,116.7h21.3c8.3-38.9,16.5-77.8,24.8-116.7H-77.8z"/>
	<path class="st2" d="M-254.9,18.5c-6.6,0.1-13.2,0.1-19.8,0c-1.6,0-2.4,0.5-2.9,2c-13.1,36.1-26.1,72.1-39.2,108.2   c-0.2,0.7-0.6,1.4-0.9,2c0-16.2,0.3-32.1,0.5-48.1c0-1.7,0.5-2.8,1.9-4c1.8-1.5,3.5-3.4,4.8-5.4c6.7-10.4,9.6-21.9,9.3-34.2   c-0.3-10.6-6-17.8-16.3-19.4c-8.4-1.2-17.1-0.8-25.6-1c-0.6,0-1.5,1.2-1.7,1.9c-3,13.7-5.9,27.5-8.9,41.2   c-4.2,19.9-8.4,39.7-12.6,59.6c-1,4.5-1.9,9-2.9,13.8h21.3c3.1-14.6,6.2-29.2,9.2-43.7c0.2,0.1,0.4,0.1,0.6,0.2   c-0.4,14.5-0.8,28.9-1.3,43.4c0.6,0.1,1,0.2,1.3,0.2c12.7,0,25.5,0,38.2,0c1.7,0,2.1-0.9,2.5-2.1c2.1-6.2,4.2-12.5,6.3-18.7   c0.3-0.8,1-1.9,1.5-1.9c3.5-0.2,6.9-0.1,10.6-0.1c-0.5,7.7-1,15-1.6,22.6h20.7c0.7-10.7,1.4-21.2,2-31.8   c0.9-14.2,1.7-28.4,2.6-42.7c0.8-13.3,1.7-26.6,2.6-39.9C-252.4,19-253.1,18.5-254.9,18.5z M-329.4,65.9c-0.9,1-2.3,1.4-3.4,2.1   c-0.2-0.2-0.4-0.3-0.6-0.5c1.9-9.1,3.8-18.3,5.8-27.3c3,0,4.7,1.3,5,4C-322,52.3-323.8,59.7-329.4,65.9z M-276.9,89.2   c-0.1,0.5-0.9,1.1-1.5,1.2c-1.2,0.2-2.4,0.1-4.2,0.1c2.3-6.6,4.4-12.7,6.4-18.7c0.2,0.1,0.4,0.1,0.7,0.2   C-275.9,77.7-276.4,83.5-276.9,89.2z"/>
	<path class="st2" d="M-210.8,135.1c3-14.4,6.1-28.9,9.1-43.3c-0.2-0.1-0.5-0.1-0.7-0.2c-1.3,3.4-2.6,6.9-3.8,10.3   c-3.8,10.5-7.6,21-11.3,31.5c-0.5,1.5-1.2,2.2-2.8,2.1c-2.9-0.1-5.8,0-9.1,0c1-15.8,1.9-31.3,2.9-46.9c-0.2,0-0.3-0.1-0.5-0.1   c-1.7,8-3.4,16-5.1,24c-1.5,7.2-3,14.3-4.6,21.5c-0.1,0.6-1,1.4-1.6,1.5c-6.1,0.1-12.3,0.1-18.8,0.1c1-4.7,1.9-9.2,2.8-13.6   c4.2-20,8.5-40,12.7-60.1c2.9-13.8,5.9-27.5,8.8-41.3c0.3-1.6,1.1-2,2.6-1.9c6.7,0,13.3,0.1,20,0c2,0,2.5,0.7,2.5,2.6   c-0.4,12.8-0.8,25.6-1.1,38.5c0,0.8,0,1.6,0.6,2.5c0.4-0.8,0.8-1.5,1.1-2.3c5.2-12.9,10.4-25.8,15.6-38.7c0.8-1.9,1.7-2.7,3.8-2.6   c6.3,0.1,12.7,0,19,0.1c0.8,0,1.6,0.1,2.9,0.1c-0.5,2.8-1,5.3-1.6,7.9c-4.7,22.4-9.5,44.8-14.2,67.1c-2.8,13.3-5.6,26.5-8.6,39.8   c-0.2,0.8-1.3,1.8-2,1.9c-5.8,0.1-11.7,0.1-17.5,0.1C-210.1,135.4-210.3,135.3-210.8,135.1z"/>
	<path class="st2" d="M-100.4,18.5c-6.5,0.1-13,0.1-19.5,0c-1.7,0-2.5,0.5-3,2.1c-11.1,30.7-22.3,61.4-33.5,92.2   c-2.5,6.8-5,13.6-7.5,20.3c-0.1,0-0.2-0.1-0.4-0.1c1.3-6.3,2.6-12.6,3.9-19.1h-20.9c-1.5,7.2-2.9,14.3-4.4,21.4   c0.6,0.1,0.9,0.1,1.3,0.1c13.1,0,26.1-0.1,39.2-0.1c1.5,0,2-0.8,2.4-2c2.1-6.2,4.2-12.5,6.3-18.7c0.3-0.8,1-2.1,1.6-2.1   c3.5-0.2,6.9-0.1,10.6-0.1c-0.5,7.8-1.1,15.1-1.6,22.8c6.8,0,13.2,0,19.7-0.1c0.4,0,1.1-1.1,1.2-1.7c0.5-6,0.8-12,1.2-17.9   c1.1-18.3,2.2-36.6,3.3-54.9c0.8-13.2,1.7-26.4,2.6-39.6C-97.7,19.2-98.2,18.5-100.4,18.5z M-121.9,87.3c-0.1,2.9-1.4,3.5-3.8,3.2   c-0.5-0.1-1-0.1-2-0.3c2.2-6.3,4.2-12.3,6.3-18.3c0.2,0,0.3,0,0.5,0c0.1,0.4,0.2,0.8,0.2,1.2C-121.2,77.9-121.8,82.6-121.9,87.3z"/>
	<path class="st2" d="M-385.4,69.9c4.6-13.1,9.1-26.2,13.7-39.3c1.2-3.4,2.3-6.8,3.6-10.1c0.3-0.7,1.1-1.7,1.7-1.7   c6.5-0.1,12.9-0.1,19.9-0.1c-1.1,3-2,5.7-2.9,8.3c-12.9,35.5-25.9,70.9-38.8,106.4c-0.6,1.5-1.2,2.2-3,2.2c-6.1-0.1-12.1,0-18.4,0   c0.2-4.8,0.4-9.2,0.7-13.7c0.9-16,1.9-31.9,2.9-47.9c1.1-17.6,2.2-35.2,3.2-52.8c0.1-1.9,0.7-2.6,2.7-2.5c5.3,0.1,10.7,0.1,16,0   c1.7,0,2.3,0.5,2.1,2.3c-1.3,15.5-2.5,31-3.7,46.5c-0.1,0.8-0.1,1.6-0.2,2.3C-385.9,69.8-385.6,69.8-385.4,69.9z"/>
	<path class="st2" d="M-56.4,18.8c-8.3,38.9-16.5,77.7-24.8,116.7c-7.1,0-14.1,0-21.3,0c8.2-38.9,16.5-77.7,24.7-116.7   C-70.6,18.8-63.6,18.8-56.4,18.8z"/>
</g>
<path class="st3" d="M101.7,376c0.9,0,1.5-0.1,2-0.5C103.2,375.9,102.6,376.1,101.7,376c-1.3,0-2.6,0-3.9,0  C99.1,376,100.4,376,101.7,376z"/>
<g>
	<path class="st3" d="M356.6,18.8L356.6,18.8l21.4,0v0H356.6z M68,18.7c-0.3,0-0.6,0.2-0.9,0.5C67.4,18.9,67.7,18.7,68,18.7   c0.9,0,1.8,0,2.7,0C69.7,18.6,68.8,18.7,68,18.7z M48.4,69.8L48.4,69.8c0.2,0,0.4,0.1,0.7,0.1C48.8,69.8,48.6,69.8,48.4,69.8z    M34.2,18.5c5.3,0.1,10.7,0.1,16,0C44.8,18.6,39.5,18.7,34.2,18.5z M242.7,21.2c-1.3,3.2-2.6,6.5-3.8,9.7   C240.1,27.6,241.4,24.4,242.7,21.2c0.1-0.2,0.2-0.4,0.3-0.6C242.9,20.7,242.8,20.9,242.7,21.2z"/>
	<path class="st3" d="M179.5,18.5c-6.6,0.1-13.2,0.1-19.8,0c-1.6,0-2.4,0.5-2.9,2c-13.1,36.1-26.1,72.1-39.2,108.2   c-0.2,0.7-0.6,1.4-0.9,2c0-16.2,0.3-32.1,0.5-48.1c0-1.7,0.5-2.8,1.9-4c1.8-1.5,3.5-3.4,4.8-5.4c6.7-10.4,9.6-21.9,9.3-34.2   c-0.3-10.6-6-17.8-16.3-19.4c-8.4-1.2-17.1-0.8-25.6-1c-0.6,0-1.5,1.2-1.7,1.9c-3,13.7-5.9,27.5-8.9,41.2   c-4.2,19.9-8.4,39.7-12.6,59.6c-1,4.5-1.9,9-2.9,13.8h21.3c3.1-14.6,6.2-29.2,9.2-43.7c0.2,0.1,0.4,0.1,0.6,0.2   c-0.4,14.5-0.8,28.9-1.3,43.4c0.6,0.1,0.9,0.2,1.3,0.2c12.7,0,25.5,0,38.2,0c1.7,0,2.1-0.9,2.5-2.1c2.1-6.2,4.2-12.5,6.3-18.7   c0.3-0.8,1-1.9,1.5-1.9c3.5-0.2,6.9-0.1,10.6-0.1c-0.5,7.7-1,15-1.6,22.6h20.7c0.7-10.7,1.4-21.2,2-31.8   c0.9-14.2,1.7-28.4,2.6-42.7c0.8-13.3,1.6-26.6,2.5-39.9C182,19,181.3,18.5,179.5,18.5z M105,65.9c-0.9,1-2.3,1.4-3.4,2.1   c-0.2-0.2-0.4-0.3-0.6-0.5c1.9-9.1,3.8-18.3,5.8-27.3c3,0,4.7,1.3,5,4C112.5,52.3,110.6,59.7,105,65.9z M157.5,89.2   c-0.1,0.5-0.9,1.1-1.5,1.2c-1.2,0.2-2.4,0.1-4.2,0.1c2.3-6.6,4.4-12.7,6.4-18.7c0.2,0.1,0.4,0.1,0.7,0.2   C158.5,77.7,158.1,83.5,157.5,89.2z"/>
	<path class="st3" d="M268.4,18.7c-0.5,2.8-1,5.3-1.6,7.9c-4.7,22.4-9.5,44.8-14.2,67.1c-2.8,13.3-5.6,26.5-8.6,39.8   c-0.2,0.8-1.3,1.9-2,1.9c-2.9,0.1-5.8,0.1-8.8,0.1c-2.9,0-5.8,0-8.7,0c-0.1,0-0.1,0-0.2,0c-0.1,0-0.2-0.1-0.3-0.1   c0,0-0.1-0.1-0.2-0.1c-0.1,0-0.2-0.1-0.2-0.1c3-14.4,6.1-28.9,9.1-43.3v0c-0.2-0.1-0.5-0.1-0.7-0.2v0c-1.3,3.4-2.6,6.9-3.8,10.3   c-3.8,10.5-7.6,21-11.4,31.5c0,0.1-0.1,0.2-0.1,0.3c0,0.1-0.1,0.2-0.1,0.3c0,0.1-0.1,0.2-0.2,0.3c0,0.1-0.1,0.1-0.1,0.2   c-0.2,0.3-0.4,0.5-0.7,0.7c-0.1,0-0.1,0.1-0.2,0.1c-0.3,0.1-0.7,0.2-1.1,0.2c-0.1,0-0.2,0-0.2,0c-2.5-0.1-4.9-0.1-7.7,0   c-0.5,0-1,0-1.5,0c1-15.8,1.9-31.3,2.9-46.9v0c-0.2,0-0.4,0-0.5-0.1c-1.7,8-3.4,16-5.1,24c-1.5,7.2-3,14.3-4.6,21.5   c-0.1,0.6-1,1.5-1.6,1.5c-3.8,0.1-7.7,0.1-11.6,0.1c-2.4,0-4.8,0-7.2,0c1-4.8,1.9-9.2,2.8-13.6c4.2-20,8.5-40,12.7-60.1   c2.9-13.8,5.9-27.5,8.8-41.3c0.3-1.6,1.1-2,2.6-2c6.7,0,13.3,0.1,20,0c0.2,0,0.3,0,0.4,0c0.1,0,0.2,0,0.2,0   c0.7,0.1,1.2,0.3,1.4,0.7c0,0,0.1,0.1,0.1,0.1c0,0.1,0.1,0.1,0.1,0.2c0,0.1,0,0.1,0.1,0.2c0.1,0.4,0.1,0.8,0.1,1.4   c-0.4,12.8-0.8,25.6-1.1,38.5c0,0.8,0,1.6,0.6,2.5c0.4-0.8,0.8-1.5,1.1-2.3c3.9-9.7,7.8-19.3,11.7-29c1.3-3.2,2.6-6.5,3.9-9.7   c0.1-0.2,0.2-0.5,0.3-0.6c0.2-0.4,0.4-0.7,0.6-0.9c0.1-0.1,0.2-0.2,0.3-0.3c0,0,0.1-0.1,0.1-0.1c0.1-0.1,0.1-0.1,0.2-0.2   c0.1,0,0.1-0.1,0.2-0.1c0.1-0.1,0.2-0.1,0.3-0.2c0,0,0.1,0,0.1,0c0.1,0,0.3-0.1,0.4-0.1c0.2,0,0.4-0.1,0.6-0.1c0.2,0,0.4,0,0.6,0   h0.2c6.3,0.1,12.7,0,19,0.1C266.3,18.6,267.1,18.7,268.4,18.7z"/>
	<path class="st3" d="M177.3,135.4c2.5,0,4.9,0,7.2,0L177.3,135.4L177.3,135.4z"/>
	<path class="st3" d="M207.8,88.5c-0.2,0-0.4,0-0.5-0.1C207.5,88.5,207.7,88.5,207.8,88.5L207.8,88.5z"/>
	<path class="st3" d="M214.1,135.5c0.1,0,0.1,0,0.2,0L214.1,135.5c-2.5-0.1-4.9-0.1-7.7,0C209.2,135.4,211.7,135.4,214.1,135.5z"/>
	<path class="st3" d="M224.6,135.4c2.9,0,5.8,0,8.7,0C230.4,135.5,227.5,135.4,224.6,135.4c-0.1,0-0.1,0-0.2,0   C224.5,135.4,224.5,135.4,224.6,135.4z"/>
	<path class="st3" d="M232.8,91.8c-0.2-0.1-0.5-0.1-0.7-0.2v0C232.3,91.7,232.6,91.7,232.8,91.8L232.8,91.8z"/>
	<path class="st3" d="M334.1,18.5c-6.5,0.1-13,0.1-19.5,0c-1.7,0-2.5,0.5-3.1,2.1c-11.1,30.7-22.3,61.4-33.5,92.2   c-2.5,6.8-5,13.6-7.5,20.3c-0.1,0-0.2-0.1-0.4-0.1c1.3-6.3,2.6-12.6,3.9-19.1h-20.9c-1.5,7.2-2.9,14.3-4.4,21.4   c0.6,0.1,1,0.1,1.3,0.1c13.1,0,26.1-0.1,39.2-0.1c1.5,0,2-0.8,2.4-2c2.1-6.2,4.2-12.5,6.3-18.7c0.3-0.8,1-2.1,1.6-2.1   c3.5-0.2,6.9-0.1,10.6-0.1c-0.5,7.8-1.1,15.1-1.6,22.8c6.8,0,13.2,0,19.7-0.1c0.4,0,1.1-1.1,1.2-1.7c0.5-6,0.8-12,1.2-17.9   c1.1-18.3,2.2-36.6,3.3-54.9c0.8-13.2,1.7-26.4,2.6-39.6C336.8,19.2,336.2,18.5,334.1,18.5z M312.5,87.3c-0.1,2.9-1.4,3.5-3.8,3.2   c-0.5-0.1-1-0.1-2-0.3c2.2-6.3,4.2-12.3,6.3-18.3c0.2,0,0.3,0,0.5,0c0.1,0.4,0.2,0.8,0.2,1.2C313.3,77.9,312.7,82.6,312.5,87.3z"/>
	<path class="st3" d="M87.8,18.6c-1,3-2,5.7-2.9,8.3C78.5,44.6,72,62.4,65.5,80.1c-6.5,17.7-12.9,35.5-19.4,53.2   c-0.2,0.7-0.5,1.2-0.9,1.5c0,0-0.1,0.1-0.2,0.2c-0.5,0.4-1.1,0.5-2,0.5c-1.3,0-2.6,0-3.9,0h-0.2c-2.1,0-4.2,0-6.4,0   c-2.6,0-5.3,0-8,0c0.2-4.8,0.5-9.2,0.7-13.7c0.9-16,1.9-31.9,2.9-47.9c1.1-17.6,2.2-35.2,3.2-52.9c0.1-1.9,0.7-2.6,2.7-2.5   c5.3,0.1,10.7,0.1,16,0c0.5,0,0.9,0,1.2,0.1c0.2,0,0.3,0.1,0.4,0.2c0,0,0,0,0,0c0.4,0.3,0.5,0.9,0.4,1.9c-1.3,15.5-2.5,31-3.7,46.5   c-0.1,0.8-0.1,1.6-0.2,2.3v0c0.2,0,0.4,0.1,0.7,0.1c4.5-13.1,9.1-26.2,13.7-39.3c1.2-3.4,2.3-6.8,3.5-10.1c0.1-0.4,0.4-0.8,0.7-1.1   c0,0,0.1-0.1,0.1-0.1c0.3-0.3,0.6-0.5,0.9-0.5c3.5-0.1,7.1-0.1,10.7-0.1C81.6,18.6,84.7,18.6,87.8,18.6z"/>
	<path class="st3" d="M65.5,80.1c-6.5,17.7-12.9,35.5-19.4,53.2c-0.2,0.7-0.5,1.1-0.9,1.5c0.4-0.3,0.6-0.8,0.9-1.5   C52.6,115.6,59.1,97.8,65.5,80.1z"/>
	<path class="st3" d="M378.1,18.8c-8.3,38.9-16.5,77.7-24.8,116.7h-21.3c8.2-38.9,16.5-77.7,24.7-116.7H378.1z"/>
</g>
</svg>