<svg width="403" height="155" viewBox="0 0 403 155" fill="none" xmlns="http://www.w3.org/2000/svg">
<g clip-path="url(#clip0_2834_18834)">
<path d="M68.0002 18.7C68.9002 18.7 69.8002 18.7 70.7002 18.7C69.7002 18.6 68.8002 18.7 68.0002 18.7ZM48.4002 69.8C48.6002 69.8 48.8002 69.9 49.1002 69.9C48.8002 69.8 48.6002 69.8 48.4002 69.8ZM34.2002 18.5C39.5002 18.6 44.9002 18.6 50.2002 18.5C44.8002 18.6 39.5002 18.7 34.2002 18.5ZM242.7 21.2C241.4 24.4 240.1 27.7 238.9 30.9C240.1 27.6 241.4 24.4 242.7 21.2C242.8 21 242.9 20.8 243 20.6C242.9 20.7 242.8 20.9 242.7 21.2Z" fill="#2BFF00"/>
<path d="M179.5 18.5C172.9 18.6 166.3 18.6 159.7 18.5C158.1 18.5 157.3 19 156.8 20.5C143.7 56.6 130.7 92.6 117.6 128.7C117.4 129.4 117 130.1 116.7 130.7C116.7 114.5 117 98.6 117.2 82.6C117.2 80.9 117.7 79.8 119.1 78.6C120.9 77.1 122.6 75.2 123.9 73.2C130.6 62.8 133.5 51.3 133.2 39C132.9 28.4 127.2 21.2 116.9 19.6C108.5 18.4 99.8002 18.8 91.3002 18.6C90.7002 18.6 89.8002 19.8 89.6002 20.5C86.6002 34.2 83.7002 48 80.7002 61.7C76.5002 81.6 72.3002 101.4 68.1002 121.3C67.1002 125.8 66.2002 130.3 65.2002 135.1H86.5002C89.6002 120.5 92.7002 105.9 95.7002 91.4C95.9002 91.5 96.1002 91.5 96.3002 91.6C95.9002 106.1 95.5002 120.5 95.0002 135C95.6002 135.1 95.9002 135.2 96.3002 135.2C109 135.2 121.8 135.2 134.5 135.2C136.2 135.2 136.6 134.3 137 133.1C139.1 126.9 141.2 120.6 143.3 114.4C143.6 113.6 144.3 112.5 144.8 112.5C148.3 112.3 151.7 112.4 155.4 112.4C154.9 120.1 154.4 127.4 153.8 135H174.5C175.2 124.3 175.9 113.8 176.5 103.2C177.4 89 178.2 74.8 179.1 60.5C179.9 47.2 180.7 33.9 181.6 20.6C182 19 181.3 18.5 179.5 18.5ZM105 65.9C104.1 66.9 102.7 67.3 101.6 68C101.4 67.8 101.2 67.7 101 67.5C102.9 58.4 104.8 49.2 106.8 40.2C109.8 40.2 111.5 41.5 111.8 44.2C112.5 52.3 110.6 59.7 105 65.9ZM157.5 89.2C157.4 89.7 156.6 90.3 156 90.4C154.8 90.6 153.6 90.5 151.8 90.5C154.1 83.9 156.2 77.8 158.2 71.8C158.4 71.9 158.6 71.9 158.9 72C158.5 77.7 158.1 83.5 157.5 89.2Z" fill="#2BFF00"/>
<path d="M268.4 18.7008C267.9 21.5008 267.4 24.0008 266.8 26.6008C262.1 49.0008 257.3 71.4008 252.6 93.7008C249.8 107.001 247 120.201 244 133.501C243.8 134.301 242.7 135.401 242 135.401C239.1 135.501 236.2 135.501 233.2 135.501C230.3 135.501 227.4 135.501 224.5 135.501C224.4 135.501 224.4 135.501 224.3 135.501C224.2 135.501 224.1 135.401 224 135.401C224 135.401 223.9 135.301 223.8 135.301C223.7 135.301 223.6 135.201 223.6 135.201C226.6 120.801 229.7 106.301 232.7 91.9008C232.5 91.8008 232.2 91.8008 232 91.7008C230.7 95.1008 229.4 98.6008 228.2 102.001C224.4 112.501 220.6 123.001 216.8 133.501C216.8 133.601 216.7 133.701 216.7 133.801C216.7 133.901 216.6 134.001 216.6 134.101C216.6 134.201 216.5 134.301 216.4 134.401C216.4 134.501 216.3 134.501 216.3 134.601C216.1 134.901 215.9 135.101 215.6 135.301C215.5 135.301 215.5 135.401 215.4 135.401C215.1 135.501 214.7 135.601 214.3 135.601C214.2 135.601 214.1 135.601 214.1 135.601C211.6 135.501 209.2 135.501 206.4 135.601C205.9 135.601 205.4 135.601 204.9 135.601C205.9 119.801 206.8 104.301 207.8 88.7008C207.6 88.7008 207.4 88.7008 207.3 88.6008C205.6 96.6008 203.9 104.601 202.2 112.601C200.7 119.801 199.2 126.901 197.6 134.101C197.5 134.701 196.6 135.601 196 135.601C192.2 135.701 188.3 135.701 184.4 135.701C182 135.701 179.6 135.701 177.2 135.701C178.2 130.901 179.1 126.501 180 122.101C184.2 102.101 188.5 82.1008 192.7 62.0008C195.6 48.2008 198.6 34.5008 201.5 20.7008C201.8 19.1008 202.6 18.7008 204.1 18.7008C210.8 18.7008 217.4 18.8008 224.1 18.7008C224.3 18.7008 224.4 18.7008 224.5 18.7008C224.6 18.7008 224.7 18.7008 224.7 18.7008C225.4 18.8008 225.9 19.0008 226.1 19.4008L226.2 19.5008C226.2 19.6008 226.3 19.6008 226.3 19.7008C226.3 19.8008 226.3 19.8008 226.4 19.9008C226.5 20.3008 226.5 20.7008 226.5 21.3008C226.1 34.1008 225.7 46.9008 225.4 59.8008C225.4 60.6008 225.4 61.4008 226 62.3008C226.4 61.5008 226.8 60.8008 227.1 60.0008C231 50.3008 234.9 40.7008 238.8 31.0008C240.1 27.8008 241.4 24.5008 242.7 21.3008C242.8 21.1008 242.9 20.8008 243 20.7008C243.2 20.3008 243.4 20.0008 243.6 19.8008C243.7 19.7008 243.8 19.6008 243.9 19.5008L244 19.4008C244.1 19.3008 244.1 19.3008 244.2 19.2008C244.3 19.2008 244.3 19.1008 244.4 19.1008C244.5 19.0008 244.6 19.0008 244.7 18.9008H244.8C244.9 18.9008 245.1 18.8008 245.2 18.8008C245.4 18.8008 245.6 18.7008 245.8 18.7008C246 18.7008 246.2 18.7008 246.4 18.7008H246.6C252.9 18.8008 259.3 18.7008 265.6 18.8008C266.3 18.6008 267.1 18.7008 268.4 18.7008Z" fill="#2BFF00"/>
<path d="M207.8 88.5004C207.6 88.5004 207.4 88.5004 207.3 88.4004C207.5 88.5004 207.7 88.5004 207.8 88.5004Z" fill="#2BFF00"/>
<path d="M214.1 135.501C214.2 135.501 214.2 135.501 214.3 135.501H214.1C211.6 135.401 209.2 135.401 206.4 135.501C209.2 135.401 211.7 135.401 214.1 135.501Z" fill="#2BFF00"/>
<path d="M224.6 135.4C227.5 135.4 230.4 135.4 233.3 135.4C230.4 135.5 227.5 135.4 224.6 135.4Z" fill="#2BFF00"/>
<path d="M334.1 18.5C327.6 18.6 321.1 18.6 314.6 18.5C312.9 18.5 312.1 19 311.5 20.6C300.4 51.3 289.2 82 278 112.8C275.5 119.6 273 126.4 270.5 133.1C270.4 133.1 270.3 133 270.1 133C271.4 126.7 272.7 120.4 274 113.9H253.1C251.6 121.1 250.2 128.2 248.7 135.3C249.3 135.4 249.7 135.4 250 135.4C263.1 135.4 276.1 135.3 289.2 135.3C290.7 135.3 291.2 134.5 291.6 133.3C293.7 127.1 295.8 120.8 297.9 114.6C298.2 113.8 298.9 112.5 299.5 112.5C303 112.3 306.4 112.4 310.1 112.4C309.6 120.2 309 127.5 308.5 135.2C315.3 135.2 321.7 135.2 328.2 135.1C328.6 135.1 329.3 134 329.4 133.4C329.9 127.4 330.2 121.4 330.6 115.5C331.7 97.2 332.8 78.9 333.9 60.6C334.7 47.4 335.6 34.2 336.5 21C336.8 19.2 336.2 18.5 334.1 18.5ZM312.5 87.3C312.4 90.2 311.1 90.8 308.7 90.5C308.2 90.4 307.7 90.4 306.7 90.2C308.9 83.9 310.9 77.9 313 71.9C313.2 71.9 313.3 71.9 313.5 71.9C313.6 72.3 313.7 72.7 313.7 73.1C313.3 77.9 312.7 82.6 312.5 87.3Z" fill="#2BFF00"/>
<path d="M87.8 18.6004C86.8 21.6004 85.8 24.3004 84.9 26.9004C78.5 44.6004 72 62.4004 65.5 80.1004C59 97.8004 52.6 115.6 46.1 133.3C45.9 134 45.6 134.5 45.2 134.8C45.2 134.8 45.1 134.9 45 135C44.5 135.4 43.9 135.5 43 135.5C41.7 135.5 40.4 135.5 39.1 135.5H38.9C36.8 135.5 34.7 135.5 32.5 135.5C29.9 135.5 27.2 135.5 24.5 135.5C24.7 130.7 25 126.3 25.2 121.8C26.1 105.8 27.1 89.9004 28.1 73.9004C29.2 56.3004 30.3 38.7004 31.3 21.0004C31.4 19.1004 32 18.4004 34 18.5004C39.3 18.6004 44.7 18.6004 50 18.5004C50.5 18.5004 50.9 18.5004 51.2 18.6004C51.4 18.6004 51.5 18.7004 51.6 18.8004C52 19.1004 52.1 19.7004 52 20.7004C50.7 36.2004 49.5 51.7004 48.3 67.2004C48.2 68.0004 48.2 68.8004 48.1 69.5004C48.3 69.5004 48.5 69.6004 48.8 69.6004C53.3 56.5004 57.9 43.4004 62.5 30.3004C63.7 26.9004 64.8 23.5004 66 20.2004C66.1 19.8004 66.4 19.4004 66.7 19.1004L66.8 19.0004C67.1 18.7004 67.4 18.5004 67.7 18.5004C71.2 18.4004 74.8 18.4004 78.4 18.4004C81.6 18.6004 84.7 18.6004 87.8 18.6004Z" fill="#2BFF00"/>
<path d="M65.5002 80.1006C59.0002 97.8006 52.6002 115.601 46.1002 133.301C45.9002 134.001 45.6002 134.401 45.2002 134.801C45.6002 134.501 45.8002 134.001 46.1002 133.301C52.6002 115.601 59.1002 97.8006 65.5002 80.1006Z" fill="#2BFF00"/>
<path d="M378.1 18.8008C369.8 57.7008 361.6 96.5008 353.3 135.501H332C340.2 96.6008 348.5 57.8008 356.7 18.8008H378.1Z" fill="#2BFF00"/>
</g>
<defs>
<clipPath id="clip0_2834_18834">
<rect width="402.8" height="154.1" fill="white"/>
</clipPath>
</defs>
</svg>